{"asset":{"generator":"Khronos glTF Blender I/O v5.2.39","version":"2.0"},"scene":0,"scenes":[{"name":"Scene","nodes":[2,5,8,11,14,17,20]}],"nodes":[{"mesh":0,"name":"Pine Tree 1_01 - Default_0"},{"mesh":1,"name":"Pine Tree 1_02 - Default_0"},{"children":[0,1],"name":"AGAC_1","rotation":[-0.70710688829422,0,0,0.7071066498756409],"scale":[0.030798323452472687,0.030798332765698433,0.030798332765698433]},{"mesh":2,"name":"Pine Tree 2_01 - Default_0","translation":[0,0,-0.000003969674253312405]},{"mesh":3,"name":"Pine Tree 2_02 - Default_0","translation":[0,0,-0.000003969674253312405]},{"children":[3,4],"name":"AGAC_2","rotation":[-0.7071069478988647,0,0,0.7071066498756409],"scale":[0.025210116058588028,0.025210123509168625,0.025210123509168625],"translation":[0.0040423572063446045,1.512607455253601,0.012896658852696419]},{"mesh":4,"name":"Pine Tree 3_01 - Default_0","translation":[0,0,-0.000004200890998617979]},{"mesh":5,"name":"Pine Tree 3_02 - Default_0","translation":[0,0,-0.000004200890998617979]},{"children":[6,7],"name":"AGAC_3","rotation":[-0.70710688829422,0,0,0.7071066498756409],"scale":[0.035033028572797775,0.03503303602337837,0.03503303602337837],"translation":[-0.014384925365447998,2.1066250801086426,0.044659871608018875]},{"mesh":6,"name":"Pine Tree 4_01 - Default_0","translation":[0,0,-0.000003523359964674455]},{"mesh":7,"name":"Pine Tree 4_02 - Default_0","translation":[0,0,-0.000003523359964674455]},{"children":[9,10],"name":"AGAC_4","rotation":[-0.70710688829422,0,0,0.7071066498756409],"scale":[0.03605498746037483,0.03605499491095543,0.03605499491095543],"translation":[0.0603615865111351,2.1822526454925537,-0.034673355519771576]},{"mesh":8,"name":"Pine Tree 5_01 - Default_0"},{"mesh":9,"name":"Pine Tree 5_02 - Default_0"},{"children":[12,13],"name":"AGAC_5","rotation":[-0.04935739189386368,0.7053820490837097,0.7053820490837097,0.04935741797089577],"scale":[0.02996675670146942,0.02996676228940487,0.02996676415205002],"translation":[0.013527750968933105,0.026807516813278198,-0.017204448580741882]},{"mesh":10,"name":"Pine Tree 6_01 - Default_0","translation":[0,0,-0.0000041111088648904115]},{"mesh":11,"name":"Pine Tree 6_02 - Default_0","translation":[0,0,-0.0000041111088648904115]},{"children":[15,16],"name":"AGAC_6","rotation":[-0.70710688829422,0,0,0.7071066498756409],"scale":[0.028730293735861778,0.028730301186442375,0.028730301186442375],"translation":[-0.019593268632888794,1.7276257276535034,0.028110582381486893]},{"mesh":12,"name":"Pine Tree 7_01 - Default_0"},{"mesh":13,"name":"Pine Tree 7_02 - Default_0"},{"children":[18,19],"name":"AGAC_7","rotation":[-0.7071069478988647,0,0,0.7071066498756409],"scale":[0.015356708317995071,0.01535671204328537,0.01535671204328537],"translation":[0.008147776126861572,0.9234379529953003,0.01611407659947872]}],"materials":[{"doubleSided":true,"name":"01_-_Default","pbrMetallicRoughness":{"baseColorFactor":[0.009956048801541328,0.3160822093486786,0.0031423955224454403,1],"metallicFactor":0,"roughnessFactor":0.6000000238418579}},{"doubleSided":true,"name":"02_-_Default","pbrMetallicRoughness":{"baseColorFactor":[0.6508912444114685,0.1540296971797943,0,1],"metallicFactor":0,"roughnessFactor":0.6000000238418579}}],"meshes":[{"name":"Pine Tree 1_01 - Default_0","primitives":[{"attributes":{"POSITION":0,"NORMAL":1,"TEXCOORD_0":2},"indices":3,"material":0}]},{"name":"Pine Tree 1_02 - Default_0","primitives":[{"attributes":{"POSITION":4,"NORMAL":5,"TEXCOORD_0":6},"indices":7,"material":1}]},{"name":"Pine Tree 2_01 - Default_0","primitives":[{"attributes":{"POSITION":8,"NORMAL":9,"TEXCOORD_0":10},"indices":11,"material":0}]},{"name":"Pine Tree 2_02 - Default_0","primitives":[{"attributes":{"POSITION":12,"NORMAL":13,"TEXCOORD_0":14},"indices":15,"material":1}]},{"name":"Pine Tree 3_01 - Default_0","primitives":[{"attributes":{"POSITION":16,"NORMAL":17,"TEXCOORD_0":18},"indices":11,"material":0}]},{"name":"Pine Tree 3_02 - Default_0","primitives":[{"attributes":{"POSITION":19,"NORMAL":20,"TEXCOORD_0":21},"indices":22,"material":1}]},{"name":"Pine Tree 4_01 - Default_0","primitives":[{"attributes":{"POSITION":23,"NORMAL":24,"TEXCOORD_0":25},"indices":11,"material":0}]},{"name":"Pine Tree 4_02 - Default_0","primitives":[{"attributes":{"POSITION":26,"NORMAL":27,"TEXCOORD_0":28},"indices":29,"material":1}]},{"name":"Pine Tree 5_01 - Default_0","primitives":[{"attributes":{"POSITION":30,"NORMAL":31,"TEXCOORD_0":32},"indices":33,"material":0}]},{"name":"Pine Tree 5_02 - Default_0","primitives":[{"attributes":{"POSITION":34,"NORMAL":35,"TEXCOORD_0":36},"indices":7,"material":1}]},{"name":"Pine Tree 6_01 - Default_0","primitives":[{"attributes":{"POSITION":37,"NORMAL":38,"TEXCOORD_0":39},"indices":11,"material":0}]},{"name":"Pine Tree 6_02 - Default_0","primitives":[{"attributes":{"POSITION":40,"NORMAL":41,"TEXCOORD_0":42},"indices":22,"material":1}]},{"name":"Pine Tree 7_01 - Default_0","primitives":[{"attributes":{"POSITION":43,"NORMAL":44,"TEXCOORD_0":45},"indices":11,"material":0}]},{"name":"Pine Tree 7_02 - Default_0","primitives":[{"attributes":{"POSITION":46,"NORMAL":47,"TEXCOORD_0":48},"indices":22,"material":1}]}],"accessors":[{"bufferView":0,"componentType":5126,"count":524,"max":[20.71076202392578,20.710758209228516,84.42015838623047],"min":[-20.71076011657715,-20.71076202392578,9.25804615020752],"type":"VEC3"},{"bufferView":1,"componentType":5126,"count":524,"type":"VEC3"},{"bufferView":2,"componentType":5126,"count":524,"type":"VEC2"},{"bufferView":3,"componentType":5123,"count":756,"type":"SCALAR"},{"bufferView":4,"componentType":5126,"count":75,"max":[9.259859085083008,9.259858131408691,12.938545227050781],"min":[-9.259859085083008,-9.259860038757324,0],"type":"VEC3"},{"bufferView":5,"componentType":5126,"count":75,"type":"VEC3"},{"bufferView":6,"componentType":5126,"count":75,"type":"VEC2"},{"bufferView":7,"componentType":5123,"count":180,"type":"SCALAR"},{"bufferView":8,"componentType":5126,"count":756,"max":[20.123348236083984,20.795263290405273,43.133174896240234],"min":[-20.444042205810547,-19.772127151489258,-9.380352020263672],"type":"VEC3"},{"bufferView":9,"componentType":5126,"count":756,"type":"VEC3"},{"bufferView":10,"componentType":5126,"count":756,"type":"VEC2"},{"bufferView":11,"componentType":5123,"count":756,"type":"SCALAR"},{"bufferView":12,"componentType":5126,"count":83,"max":[4.78353214263916,4.783533573150635,8.364234924316406],"min":[-4.783534526824951,-4.783533573150635,-60],"type":"VEC3"},{"bufferView":13,"componentType":5126,"count":83,"type":"VEC3"},{"bufferView":14,"componentType":5126,"count":83,"type":"VEC2"},{"bufferView":15,"componentType":5123,"count":102,"type":"SCALAR"},{"bufferView":16,"componentType":5126,"count":756,"max":[19.49144744873047,20.604320526123047,14.0831298828125],"min":[-18.67022705078125,-18.05471420288086,-36.84638214111328],"type":"VEC3"},{"bufferView":17,"componentType":5126,"count":756,"type":"VEC3"},{"bufferView":18,"componentType":5126,"count":756,"type":"VEC2"},{"bufferView":19,"componentType":5126,"count":84,"max":[4.783533573150635,4.783533573150635,-31.85062026977539],"min":[-4.783533096313477,-4.783533573150635,-60.132530212402344],"type":"VEC3"},{"bufferView":20,"componentType":5126,"count":84,"type":"VEC3"},{"bufferView":21,"componentType":5126,"count":84,"type":"VEC2"},{"bufferView":22,"componentType":5123,"count":102,"type":"SCALAR"},{"bufferView":23,"componentType":5126,"count":756,"max":[17.35794448852539,18.469287872314453,11.586397171020508],"min":[-20.706253051757812,-20.392623901367188,-41.667457580566406],"type":"VEC3"},{"bufferView":24,"componentType":5126,"count":756,"type":"VEC3"},{"bufferView":25,"componentType":5126,"count":756,"type":"VEC2"},{"bufferView":26,"componentType":5126,"count":102,"max":[6.5260009765625,6.5260009765625,-29.822622299194336],"min":[-3.625523567199707,-3.625523567199707,-60.525665283203125],"type":"VEC3"},{"bufferView":27,"componentType":5126,"count":102,"type":"VEC3"},{"bufferView":28,"componentType":5126,"count":102,"type":"VEC2"},{"bufferView":29,"componentType":5123,"count":102,"type":"SCALAR"},{"bufferView":30,"componentType":5126,"count":535,"max":[21.228580474853516,21.22857666015625,85.86820983886719],"min":[-20.192943572998047,-20.192943572998047,8.428634643554688],"type":"VEC3"},{"bufferView":31,"componentType":5126,"count":535,"type":"VEC3"},{"bufferView":32,"componentType":5126,"count":535,"type":"VEC2"},{"bufferView":33,"componentType":5123,"count":756,"type":"SCALAR"},{"bufferView":34,"componentType":5126,"count":75,"max":[9.259859085083008,9.259858131408691,12.043971061706543],"min":[-9.259859085083008,-9.259860038757324,-0.8945746421813965],"type":"VEC3"},{"bufferView":35,"componentType":5126,"count":75,"type":"VEC3"},{"bufferView":36,"componentType":5126,"count":75,"type":"VEC2"},{"bufferView":37,"componentType":5126,"count":756,"max":[19.016983032226562,20.0748233795166,30.3642635345459],"min":[-17.653038024902344,-18.117952346801758,-21.285415649414062],"type":"VEC3"},{"bufferView":38,"componentType":5126,"count":756,"type":"VEC3"},{"bufferView":39,"componentType":5126,"count":756,"type":"VEC2"},{"bufferView":40,"componentType":5126,"count":84,"max":[4.783533573150635,4.783533573150635,-11.974723815917969],"min":[-4.783533096313477,-4.783533573150635,-60.132530212402344],"type":"VEC3"},{"bufferView":41,"componentType":5126,"count":84,"type":"VEC3"},{"bufferView":42,"componentType":5126,"count":84,"type":"VEC2"},{"bufferView":43,"componentType":5126,"count":756,"max":[12.073566436767578,13.641288757324219,109.17454528808594],"min":[-13.134699821472168,-11.542684555053711,51.76664733886719],"type":"VEC3"},{"bufferView":44,"componentType":5126,"count":756,"type":"VEC3"},{"bufferView":45,"componentType":5126,"count":756,"type":"VEC2"},{"bufferView":46,"componentType":5126,"count":84,"max":[4.783533573150635,4.783533573150635,64.04597473144531],"min":[-4.783533096313477,-4.783533573150635,-60.132530212402344],"type":"VEC3"},{"bufferView":47,"componentType":5126,"count":84,"type":"VEC3"},{"bufferView":48,"componentType":5126,"count":84,"type":"VEC2"}],"bufferViews":[{"buffer":0,"byteLength":6288,"byteOffset":0,"target":34962},{"buffer":0,"byteLength":6288,"byteOffset":6288,"target":34962},{"buffer":0,"byteLength":4192,"byteOffset":12576,"target":34962},{"buffer":0,"byteLength":1512,"byteOffset":16768,"target":34963},{"buffer":0,"byteLength":900,"byteOffset":18280,"target":34962},{"buffer":0,"byteLength":900,"byteOffset":19180,"target":34962},{"buffer":0,"byteLength":600,"byteOffset":20080,"target":34962},{"buffer":0,"byteLength":360,"byteOffset":20680,"target":34963},{"buffer":0,"byteLength":9072,"byteOffset":21040,"target":34962},{"buffer":0,"byteLength":9072,"byteOffset":30112,"target":34962},{"buffer":0,"byteLength":6048,"byteOffset":39184,"target":34962},{"buffer":0,"byteLength":1512,"byteOffset":45232,"target":34963},{"buffer":0,"byteLength":996,"byteOffset":46744,"target":34962},{"buffer":0,"byteLength":996,"byteOffset":47740,"target":34962},{"buffer":0,"byteLength":664,"byteOffset":48736,"target":34962},{"buffer":0,"byteLength":204,"byteOffset":49400,"target":34963},{"buffer":0,"byteLength":9072,"byteOffset":49604,"target":34962},{"buffer":0,"byteLength":9072,"byteOffset":58676,"target":34962},{"buffer":0,"byteLength":6048,"byteOffset":67748,"target":34962},{"buffer":0,"byteLength":1008,"byteOffset":73796,"target":34962},{"buffer":0,"byteLength":1008,"byteOffset":74804,"target":34962},{"buffer":0,"byteLength":672,"byteOffset":75812,"target":34962},{"buffer":0,"byteLength":204,"byteOffset":76484,"target":34963},{"buffer":0,"byteLength":9072,"byteOffset":76688,"target":34962},{"buffer":0,"byteLength":9072,"byteOffset":85760,"target":34962},{"buffer":0,"byteLength":6048,"byteOffset":94832,"target":34962},{"buffer":0,"byteLength":1224,"byteOffset":100880,"target":34962},{"buffer":0,"byteLength":1224,"byteOffset":102104,"target":34962},{"buffer":0,"byteLength":816,"byteOffset":103328,"target":34962},{"buffer":0,"byteLength":204,"byteOffset":104144,"target":34963},{"buffer":0,"byteLength":6420,"byteOffset":104348,"target":34962},{"buffer":0,"byteLength":6420,"byteOffset":110768,"target":34962},{"buffer":0,"byteLength":4280,"byteOffset":117188,"target":34962},{"buffer":0,"byteLength":1512,"byteOffset":121468,"target":34963},{"buffer":0,"byteLength":900,"byteOffset":122980,"target":34962},{"buffer":0,"byteLength":900,"byteOffset":123880,"target":34962},{"buffer":0,"byteLength":600,"byteOffset":124780,"target":34962},{"buffer":0,"byteLength":9072,"byteOffset":125380,"target":34962},{"buffer":0,"byteLength":9072,"byteOffset":134452,"target":34962},{"buffer":0,"byteLength":6048,"byteOffset":143524,"target":34962},{"buffer":0,"byteLength":1008,"byteOffset":149572,"target":34962},{"buffer":0,"byteLength":1008,"byteOffset":150580,"target":34962},{"buffer":0,"byteLength":672,"byteOffset":151588,"target":34962},{"buffer":0,"byteLength":9072,"byteOffset":152260,"target":34962},{"buffer":0,"byteLength":9072,"byteOffset":161332,"target":34962},{"buffer":0,"byteLength":6048,"byteOffset":170404,"target":34962},{"buffer":0,"byteLength":1008,"byteOffset":176452,"target":34962},{"buffer":0,"byteLength":1008,"byteOffset":177460,"target":34962},{"buffer":0,"byteLength":672,"byteOffset":178468,"target":34962}],"buffers":[{"byteLength":179140,"uri":"data:application/octet-stream;base64,"}],"extensionsUsed":[]}